<?xml version="1.0" encoding="UTF-8"?>
<svg id="Capa_1" data-name="Capa 1" xmlns="http://www.w3.org/2000/svg" viewBox="0 0 136 21">
  <defs>
    <style>
      .cls-1 {
        stroke-width: 0px;
      }
    </style>
  </defs>
  <g>
    <path class="cls-1" d="M32.59.55s-.06-.06-.06-.06l-.34-.34-10.22,10.22,10.22,10.22,10.22-10.22L32.59.55ZM37.58,14.45s-.02.01-.03.02c-.01,0-.02.01-.03.02-3.86,2.27-7.09-.36-7.82-1.59-.54-.91-.67-2.03-.21-3,.37-.77,1.1-1.27,1.95-1.37,1.1-.13,1.87.39,1.87.39,0,0-.04-.06-.22-.25-.43-.45-2.51-1.7-4.9-.34-1.21.68-1.93,1.71-2.22,3.02-.15.68-.08,1.4-.03,2.09l-3.07-3.07,3.15-3.15.35-.34c1.06-.27,4.41-.96,6.77.49.79.48,1.31,1.29,1.39,2.21.07.89-.27,1.81-1.15,2.16-.63.25-1.44.12-1.89-.4-.5-.58-.38-1.37.06-1.95-.08.11-.38.2-.5.3-.18.15-.35.32-.48.52-.3.43-.46.95-.39,1.48.27,2.1,3.02,2.74,4.74,2.18.27-.09.54-.21.78-.35,0,0,.02-.01.05-.03.39-.24.75-.54,1.05-.88,1.01-1.01,2.28-2.82,1.75-5.2l.25.25,2.75,2.75-.33.33s-3.61,3.75-3.61,3.75Z"/>
    <path class="cls-1" d="M32.67,10.79c.39,0,.7-.31.7-.7s-.31-.7-.7-.7-.7.31-.7.7.31.7.7.7Z"/>
  </g>
  <g>
    <path class="cls-1" d="M74.78,7.73c-.64-.56-1.48-.86-2.5-.92-.88-.06-1.64.18-2.28.7-.64.53-1.16,1.19-1.56,2-.4.81-.64,1.69-.75,2.66-.1.97-.03,1.86.22,2.68.25.82.7,1.51,1.34,2.06.64.56,1.51.83,2.59.83.97,0,1.79-.26,2.48-.79.69-.53,1.22-1.19,1.6-1.98.38-.79.59-1.65.64-2.57.04-.92-.08-1.79-.37-2.61-.29-.82-.76-1.51-1.41-2.06ZM73.64,13.99c-.09.54-.23.98-.44,1.32-.2.34-.47.49-.79.46-.38-.03-.69-.23-.92-.61-.23-.38-.41-.84-.53-1.38-.12-.54-.18-1.13-.18-1.76s.05-1.21.15-1.74c.1-.53.26-.97.46-1.32.2-.35.45-.53.75-.53.32,0,.6.19.83.57.23.38.42.85.55,1.41.13.56.2,1.16.22,1.8.01.64-.02,1.24-.11,1.78Z"/>
    <path class="cls-1" d="M94.13,6.02c.46.24.92.31,1.39.22.25-.06.48-.16.71-.31.23-.15.43-.33.6-.55.17-.22.3-.47.38-.75.09-.28.11-.58.07-.9-.06-.62-.3-1.06-.74-1.34-.44-.28-.93-.34-1.48-.2-.55.15-.99.45-1.32.9-.33.45-.46,1-.38,1.65.06.61.31,1.04.77,1.27Z"/>
    <path class="cls-1" d="M117.88,10.86c-.12-.16-.26-.26-.44-.29-.18-.03-.36,0-.55.09-.19.09-.33.26-.42.53-.06.21-.19.54-.4.99-.21.45-.45.95-.75,1.49-.29.54-.63,1.11-1.01,1.69-.38.59-.78,1.1-1.19,1.54-.41.44-.84.78-1.27,1.03-.44.25-.85.32-1.23.2-.29-.09-.52-.29-.68-.62-.16-.32-.28-.72-.35-1.19-.07-.47-.1-1-.09-1.58.01-.58.07-1.19.15-1.8.32-.03.7-.07,1.12-.13.42-.06.84-.15,1.25-.28.41-.13.79-.3,1.14-.51.35-.2.64-.47.88-.79.29-.38.42-.91.37-1.58-.04-.67-.21-1.33-.51-1.98-.29-.64-.71-1.21-1.25-1.69-.54-.48-1.16-.72-1.87-.72s-1.4.37-2,1.1c-.6.73-1.1,1.66-1.49,2.77-.21.59-.38,1.21-.52,1.85-.03.05-.05.12-.08.18-.09.29-.29.8-.61,1.52-.32.72-.72,1.43-1.19,2.13-.47.7-1,1.3-1.6,1.78-.6.48-1.25.62-1.96.42-.41-.12-.7-.41-.86-.88-.16-.47-.24-1.03-.24-1.67s.07-1.33.2-2.04c.13-.72.29-1.38.46-2,.18-.62.37-1.13.59-1.54.43-.8.98-.81,1.34,0,.42.95-.02,2.09-.34,3.01-.19.54-.73,1.34.07,1.64.68.25,1.39-.41,1.67-.97.18-.37.31-.78.38-1.22.37-2.19-.61-4.91-3.1-4.91-.73,0-1.39.31-1.98.92-.59.62-1.08,1.38-1.47,2.31-.4.92-.67,1.92-.81,2.99-.02.12-.02.23-.03.35-.16.48-.33.95-.51,1.43-.23.62-.48,1.15-.72,1.6-.25.46-.46.68-.64.68-.26,0-.43-.26-.51-.79-.07-.53-.1-1.16-.07-1.89.03-.73.09-1.49.2-2.28.1-.79.21-1.45.33-1.98.09-.47-.03-.86-.35-1.19-.32-.32-.7-.51-1.14-.57-.44-.06-.84.04-1.21.31-.37.26-.55.75-.55,1.45s-.03,1.35-.06,2.04c-.08.19-.16.4-.26.66-.26.66-.56,1.33-.88,2.02-.32.69-.64,1.3-.94,1.82-.31.53-.55.79-.72.79-.21,0-.34-.37-.4-1.12-.06-.75-.07-1.68-.04-2.81.03-1.13.09-2.33.18-3.6.09-1.27.19-2.44.31-3.49h1.32c.47,0,.84-.09,1.1-.26.26-.17.4-.37.4-.59s-.12-.42-.37-.62c-.25-.19-.65-.29-1.21-.29h-1.05l.22-1.14c.09-.47-.04-.85-.37-1.14-.34-.29-.73-.45-1.16-.48-.44-.03-.85.09-1.23.37-.38.28-.57.77-.57,1.47,0,.15,0,.32-.02.5-.02.19-.02.39-.02.59h-1.19c-.53,0-.91.09-1.14.26-.23.17-.34.37-.33.57.01.21.15.4.4.57.25.18.61.26,1.08.26h1.05c-.06.85-.13,1.78-.22,2.79-.06.67-.1,1.34-.13,2-.03.07-.05.14-.06.22-.06.35-.21.87-.44,1.56-.23.69-.5,1.37-.79,2.04-.29.67-.58,1.27-.86,1.78-.28.51-.5.77-.68.77-.26,0-.42-.23-.48-.7-.06-.47-.06-1.03,0-1.69.06-.66.15-1.35.29-2.09.13-.73.26-1.36.37-1.89.12-.53.06-.86-.18-1.01-.6-.38-1.45-.15-2.11-.09-.48.04-.99.06-1.46-.08-.44-.13-.82-.62-1.25-.67-.35-.04-.49.31-.54.59-.03.15-.03.31-.01.46.01.08.2.47.19.49,0,0-.95,2.37-.45,2.82.24.22,1.37.28,1.36,0-.01-.95.62-2.06.71-2.21h.44c.15,0,.29-.01.44-.04-.23.7-.42,1.52-.55,2.46-.13.94-.15,1.82-.07,2.66.09.84.29,1.55.61,2.15.32.6.84.91,1.54.95.61.03,1.17-.13,1.67-.46.5-.34.95-.78,1.36-1.34.39-.53.72-1.11,1-1.73.06.52.14,1,.25,1.44.18.72.44,1.3.79,1.74.35.44.81.66,1.36.66.85,0,1.58-.32,2.2-.97.61-.64,1.14-1.41,1.58-2.28.03-.05.05-.11.07-.16.1.45.25.87.45,1.24.34.63.9,1.06,1.69,1.3.53.15,1.01.09,1.45-.18.44-.26.84-.64,1.21-1.12.26-.34.49-.74.7-1.15.22.61.54,1.15.96,1.61.58.64,1.41,1,2.46,1.05.82.03,1.56-.11,2.22-.42.66-.31,1.24-.71,1.76-1.21.51-.5.96-1.05,1.34-1.67.07-.11.12-.21.19-.32.03.28.07.56.12.84.2,1.11.6,2.04,1.19,2.77.58.73,1.41,1.1,2.46,1.1.88,0,1.68-.19,2.39-.57.72-.38,1.35-.86,1.91-1.43.56-.57,1.03-1.2,1.43-1.89.4-.69.73-1.35,1.01-2,.28-.64.49-1.22.64-1.73.15-.51.25-.86.31-1.03.06-.26.03-.48-.09-.64ZM110.68,8.45c.23-.66.45-1.03.66-1.12.12-.06.23.03.33.26.1.23.18.53.22.88.04.35.05.7.02,1.03-.03.34-.1.59-.22.77-.15.23-.38.39-.7.46-.32.07-.64.11-.97.11.2-.94.42-1.74.66-2.4Z"/>
    <path class="cls-1" d="M67.07,3.96c.11-1.12.19-1.86.25-2.26.02-.25-.04-.3-.06-.32-.18-.15-.36-.22-.57-.22-.23,0-.47.09-.71.26-.07.05-.16.12-.16.41,0,.71-.11,1.9-.34,3.65-.22,1.7-.52,3.44-.88,5.19-.37,1.78-.8,3.38-1.28,4.76-.41,1.18-1.1,2.74-2.41,2.74-1.21,0-1.87-1.36-2.27-2.38-.47-1.2-.84-2.72-1.1-4.51-.25-1.75-.4-3.64-.42-5.62-.03-1.93.17-3.77.59-5.46-.38-.12-.74-.17-1.13-.17-.23,0-.48.02-.73.05-.67.1-1.3.36-1.92.81-.48.34-.71.8-.74,1.46v.08c-.27,2.24-.34,4.55-.21,6.86.13,2.28.48,4.35,1.02,6.16.53,1.74,1.27,3.14,2.2,4.18.83.93,1.84,1.33,3.07,1.23,1-.05,1.83-.42,2.56-1.15.81-.8,1.53-1.84,2.13-3.09.63-1.3,1.16-2.74,1.58-4.28.43-1.57.77-3.1,1.01-4.53.24-1.44.42-2.74.53-3.86Z"/>
  </g>
</svg>